<svg width="48" height="41" viewBox="0 0 48 41" fill="none" xmlns="http://www.w3.org/2000/svg">
<path fill-rule="evenodd" clip-rule="evenodd" d="M47.7998 28.6623C47.7998 22.3623 42.6998 17.2623 36.3998 17.2623C30.0998 17.2623 24.9998 22.3623 24.9998 28.6623C24.9998 34.9623 30.0998 40.0623 36.3998 40.0623C42.6998 40.0623 47.7998 34.9623 47.7998 28.6623ZM0.999755 12.6623C0.899755 7.16226 3.59976 2.76226 7.99976 0.862257C12.9998 -1.23774 19.0998 0.562257 23.7998 5.56226C23.8998 5.76226 24.1998 5.76226 24.3998 5.76226C24.5998 5.76226 24.7998 5.66226 24.9998 5.56226C29.6998 0.562257 35.7998 -1.23774 40.7998 0.862257C45.1998 2.66226 47.8998 7.16226 47.7998 12.5623C47.7998 14.8623 47.0998 17.1623 45.7998 19.6623C43.3998 17.1623 40.0998 15.5623 36.3998 15.5623C29.2998 15.5623 23.3998 21.3623 23.3998 28.5623C23.3998 32.2623 24.8998 35.5623 27.3998 37.9623C26.3998 38.6623 25.3998 39.2623 24.3998 39.8623C13.5998 33.4623 1.19976 22.5623 0.999755 12.6623ZM15.4998 6.16226C15.5998 5.76226 15.3998 5.26226 14.9998 5.16226C12.6998 4.36226 10.5998 4.56226 8.79976 5.66226C6.69976 6.96226 5.49976 9.46226 5.59976 12.5623C5.59976 14.4623 6.39976 16.6623 7.89976 19.0623C7.99976 19.2623 8.29976 19.4623 8.59976 19.4623C8.69976 19.4623 8.89976 19.4623 8.99975 19.3623C9.39975 19.1623 9.49975 18.6623 9.29976 18.2623C7.99975 16.0623 7.29976 14.1623 7.19976 12.5623C7.19976 11.0623 7.49975 8.46226 9.69975 7.06226C11.0998 6.16226 12.6998 6.06226 14.4998 6.76226C14.8998 6.76226 15.3998 6.56226 15.4998 6.16226ZM44.4998 26.8623L40.1998 30.7623L41.3998 36.4623L36.3998 33.5623L31.3998 36.4623L32.5998 30.7623L28.2998 26.8623L34.0998 26.2623L36.4998 20.9623L38.8998 26.2623L44.4998 26.8623Z" fill="#CE0404"/>
</svg>
