<svg width="40" height="40" viewBox="0 0 40 40" fill="none" xmlns="http://www.w3.org/2000/svg">
<g clip-path="url(#clip0_21_55)">
<path d="M26.3 8.4C26.3 13.1 22.5 16.8 17.9 16.8C13.3 16.8 9.5 13 9.5 8.4C9.5 3.7 13.3 0 17.9 0C22.5 0 26.3 3.8 26.3 8.4Z" fill="#CE0404"/>
<path d="M23.0999 20.3999C22.7999 20.3999 22.4999 20.5999 22.4999 20.9999C22.4999 21.0999 22.3999 24.0999 23.2999 27.5999C24.5999 32.1999 27.1999 35.3999 30.8999 36.8999C30.9999 36.8999 30.9999 36.8999 31.0999 36.8999C31.1999 36.8999 31.1999 36.8999 31.2999 36.8999C31.3999 36.8999 33.4999 36.2999 35.5999 34.0999C37.4999 32.0999 39.8999 28.1999 39.9999 21.3999C39.9999 21.0999 39.7999 20.8999 39.4999 20.7999C39.3999 20.7999 34.2999 19.9999 31.6999 17.0999C31.5999 16.9999 31.3999 16.8999 31.2999 16.8999C31.0999 16.8999 30.9999 16.9999 30.8999 17.0999C30.8999 17.0999 27.5999 20.4999 23.4999 20.4999C23.2999 20.3999 23.1999 20.3999 23.0999 20.3999ZM26.9999 26.1999C27.1999 25.8999 27.5999 25.8999 27.8999 26.1999L30.0999 28.2999L34.4999 24.2999C34.7999 24.0999 35.1999 24.0999 35.3999 24.2999C35.5999 24.5999 35.5999 24.9999 35.3999 25.1999L30.4999 29.5999C30.3999 29.6999 30.1999 29.7999 30.0999 29.7999C29.8999 29.7999 29.7999 29.6999 29.6999 29.5999L27.0999 27.0999C26.7999 26.7999 26.7999 26.3999 26.9999 26.1999Z" fill="#CE0404"/>
<path d="M3 40H32.7C34.3 40 35.7 38.7 35.7 37.1V35.8C33.7 37.6 31.9 38.1 31.7 38.1C31.5 38.1 31.4 38.2001 31.2 38.2001C31 38.2001 30.8 38.2 30.5 38.1C26.4 36.5 23.5 33.1 22.2 28C21.2 24.4 21.4 21.2 21.4 21C21.4 20 22.3 19.3 23.2 19.3H23.3C23.4 19.3 23.5 19.3 23.6 19.3C25.5 19.3 27.3 18.4 28.5 17.6C27.2 16.8 25.9 16.2 24.4 15.8C22.7 17.3 20.4 18.3 18 18.3C15.5 18.3 13.3 17.4 11.6 15.8C5 17.5 0 23 0 29.9V37C0 38.7001 1.3 40 3 40ZM9.7 20.3C10 20.3 10.3 20.6 10.3 20.9C10.3 21.2 10 21.5 9.7 21.5C9.4 21.5 9.1 21.2 9.1 20.9C9.1 20.6 9.3 20.3 9.7 20.3ZM4.4 29.1C4.4 26.4 5.5 23.9 7.4 22C7.6 21.8 8 21.8 8.3 22C8.5 22.2 8.5 22.6 8.3 22.9C6.6 24.6 5.6 26.8 5.6 29.1V34.3C5.6 34.8 5.7 34.9001 5.7 34.9001C5.7 34.9001 5.8 35 6.3 35H15.7C16 35 16.3 35.3 16.3 35.6C16.3 35.9 16 36.2001 15.7 36.2001H6.3C4.9 36.2001 4.4 35.7 4.4 34.3V29.1Z" fill="#CE0404"/>
</g>
<defs>
<clipPath id="clip0_21_55">
<rect width="40" height="40" fill="white"/>
</clipPath>
</defs>
</svg>
