<svg width="42" height="40" viewBox="0 0 42 40" fill="none" xmlns="http://www.w3.org/2000/svg">
<g clip-path="url(#clip0_21_59)">
<path d="M4.19985 24.4004C2.39985 24.4004 0.899845 25.9004 0.999845 27.8004L1.29985 35.1004C1.29985 35.5004 1.59985 35.8004 1.99985 35.8004H6.39985C6.79985 35.8004 7.09984 35.5004 7.09984 35.1004L7.39985 27.8004C7.49985 25.9004 6.09984 24.4004 4.19985 24.4004Z" fill="#CE0404"/>
<path d="M30.1998 24.4004C28.3998 24.4004 26.8998 25.9004 26.9998 27.8004L27.2998 35.1004C27.2998 35.5004 27.5998 35.8004 27.9998 35.8004H32.3998C32.7998 35.8004 33.0998 35.5004 33.0998 35.1004L33.3998 27.8004C33.4998 25.9004 31.9998 24.4004 30.1998 24.4004Z" fill="#CE0404"/>
<path d="M14.8001 29.8004L15.0001 28.0004C15.2001 26.1004 13.7001 24.4004 11.8001 24.4004C9.9001 24.4004 8.4001 26.1004 8.6001 28.0004L8.8001 29.8004C8.9001 30.3004 8.8001 30.9004 8.6001 31.4004V31.5004C8.3001 32.3004 8.1001 33.2004 8.1001 34.1004V35.0004C8.1001 35.4004 8.4001 35.7004 8.8001 35.7004H14.7001C15.1001 35.7004 15.4001 35.4004 15.4001 35.0004V34.1004C15.4001 33.2004 15.2001 32.3004 14.9001 31.4004C14.8001 30.9004 14.7001 30.3004 14.8001 29.8004Z" fill="#CE0404"/>
<path d="M8.3998 21.9002C8.2998 22.1002 8.2998 22.3002 8.2998 22.5002C8.2998 22.9002 8.5998 23.3002 8.9998 23.5002C9.3998 23.7002 9.8998 23.6002 10.1998 23.4002C10.2998 23.5002 10.3998 23.5002 10.4998 23.6002C11.2998 24.0002 12.2998 24.0002 12.9998 23.6002V23.7002C13.0998 24.0002 13.3998 24.3002 13.6998 24.4002C14.1998 24.5002 14.5998 24.2002 14.7998 23.7002C14.7998 23.6002 14.7998 23.4002 14.7998 23.3002C14.7998 23.2002 14.7998 23.1002 14.8998 23.0002C14.9998 22.9002 15.0998 22.7002 15.1998 22.5002C15.2998 22.0002 15.0998 21.4002 14.5998 21.2002C14.5998 20.6002 14.3998 20.0002 14.0998 19.6002C14.1998 19.5002 14.1998 19.3002 14.2998 19.2002C14.2998 18.8002 14.0998 18.4002 13.7998 18.3002C13.6998 18.2002 13.5998 18.2002 13.3998 18.2002C13.1998 18.2002 12.8998 18.1002 12.7998 17.9002C12.6998 17.6002 12.3998 17.4002 12.0998 17.3002C11.6998 17.2002 11.3998 17.3002 11.0998 17.6002C10.8998 17.8002 10.6998 17.8002 10.3998 17.8002C10.2998 17.8002 10.1998 17.8002 10.0998 17.8002C9.69981 17.8002 9.29981 18.0002 9.0998 18.4002C8.9998 18.5002 8.9998 18.7002 8.9998 18.8002C8.9998 19.1002 8.7998 19.3002 8.5998 19.4002C8.1998 19.5002 7.8998 19.9002 7.8998 20.3002C7.7998 20.7002 7.8998 21.1002 8.1998 21.4002C8.3998 21.4002 8.3998 21.6002 8.3998 21.9002Z" fill="#CE0404"/>
<path d="M28.6999 23.0002C28.4999 23.1002 28.1999 23.1002 27.9999 23.1002H27.8999C28.0999 23.3002 28.2999 23.4002 28.4999 23.5002C29.8999 24.2002 31.4999 23.7002 32.1999 22.3002C32.8999 20.9002 32.3999 19.3002 30.9999 18.6002C30.3999 18.3002 29.7999 18.2002 29.1999 18.3002L29.8999 20.3002C30.2999 21.4002 29.7999 22.6002 28.6999 23.0002Z" fill="#CE0404"/>
<path d="M40.6998 31.4004C40.4998 30.9004 40.3998 30.3004 40.4998 29.8004L40.6998 28.0004C40.8998 26.1004 39.3998 24.4004 37.4998 24.4004C35.5998 24.4004 34.0998 26.1004 34.2998 28.0004L34.4998 29.8004C34.5998 30.3004 34.4998 30.9004 34.2998 31.4004V31.5004C33.9998 32.3004 33.7998 33.2004 33.7998 34.1004V35.0004C33.7998 35.4004 34.0998 35.7004 34.4998 35.7004H40.3998C40.7998 35.7004 41.0998 35.4004 41.0998 35.0004V34.1004C41.0998 33.2004 40.9998 32.3004 40.6998 31.4004Z" fill="#CE0404"/>
<path d="M35.1999 19.8003C34.4999 21.2003 34.9999 22.8003 36.3999 23.5003C37.7999 24.2003 39.3999 23.7003 40.0999 22.3003C40.4999 21.5003 40.4999 20.5003 40.0999 19.8003C40.3999 19.7003 40.6999 19.4003 40.7999 19.1003C40.9999 18.5003 40.6999 17.8003 40.0999 17.5003C39.7999 17.4003 39.3999 17.4003 39.0999 17.6003C38.9999 17.5003 38.8999 17.3003 38.6999 17.3003C38.1999 17.1003 37.6999 17.3003 37.5999 17.8003C37.4999 18.0003 37.4999 18.1003 37.5999 18.3003C36.5999 18.3003 35.5999 18.9003 35.1999 19.8003Z" fill="#CE0404"/>
<path d="M24.7 16.6001L26.7 21.5001C26.8 21.7001 27 22.0001 27.2 22.1001C27.4 22.3001 27.7 22.4001 28 22.4001C28.2 22.4001 28.3 22.4001 28.5 22.3001C29.2 22.0001 29.6 21.3001 29.3 20.5001L28.6 18.5001L26.3 12.2001C25.8 10.8001 24.5 9.9001 23 9.9001H20.4C19.4 9.9001 18.5 9.4001 18 8.5001L14.3 2.2001C14 1.8001 13.5 1.6001 13 1.6001C12.7 1.6001 12.4 1.7001 12.1 1.9001C11.6 2.3001 11.4 3.0001 11.7 3.6001L16.8 14.1001C17.6 15.7001 16.8 18.2001 16.4 21.1001C16.1 23.1001 16.1 24.4001 16.2 26.1001C16.5 29.6001 16.9 36.0001 17.1 38.7001C17.1 39.4001 17.7 40.0001 18.4 40.0001H18.6C19.3 40.0001 19.9 39.4001 19.9 38.7001L20.6 26.5001C20.6 26.3001 20.8 26.1001 21 26.1001C21.2 26.1001 21.4 26.3001 21.4 26.5001L22.1 38.7001C22.1 39.4001 22.7 40.0001 23.4 40.0001C24.1 40.0001 24.7 39.4001 24.7 38.7001C24.9 36.0001 25.2 29.8001 25.4 26.3001C25.5 24.5001 25.5 22.7001 25.2 21.0001C24.9 19.1001 24.7 18.4001 24.6 17.7001C24.6 17.3001 24.6 17.0001 24.6 16.6001H24.7Z" fill="#CE0404"/>
<path d="M21.2002 9.00015C23.1002 9.00015 24.7002 7.40015 24.7002 5.50015C24.7002 5.30015 24.7002 5.10015 24.6002 4.90015C25.0002 5.60015 25.8002 6.40015 27.0002 6.40015C28.7002 6.40015 28.7002 5.00015 28.7002 5.00015C27.9002 5.00015 27.3002 4.20015 26.4002 2.20015C25.3002 -0.0998483 23.8002 0.000151719 23.8002 0.000151719C22.0002 0.000151719 21.6002 1.50015 21.5002 2.00015C21.4002 2.00015 21.3002 2.00015 21.2002 2.00015C19.3002 2.00015 17.7002 3.60015 17.7002 5.50015C17.7002 7.40015 19.3002 9.00015 21.2002 9.00015ZM20.6002 4.20015C21.2002 5.00015 22.2002 5.90015 23.9002 6.00015C23.7002 7.30015 22.5002 8.30015 21.2002 8.30015C19.7002 8.30015 18.4002 7.10015 18.4002 5.50015C18.4002 5.40015 18.4002 5.30015 18.4002 5.30015C19.6002 5.10015 20.3002 4.50015 20.6002 4.20015Z" fill="#CE0404"/>
<path d="M10.7999 13.4C11.2999 14.9 10.3999 16.4 8.9999 16.9C7.4999 17.4 5.9999 16.5 5.4999 15.1C4.9999 13.6 5.8999 12.1 7.2999 11.6C8.7999 11.2 10.3999 12 10.7999 13.4Z" fill="#CE0404"/>
<path d="M6.9 20.2003C7.4 21.7003 6.5 23.2003 5.1 23.7003C3.6 24.2003 2.1 23.3003 1.6 21.9003C1.1 20.4003 2 18.9003 3.4 18.4003C4.9 18.0003 6.4 18.8003 6.9 20.2003Z" fill="#CE0404"/>
<path d="M36.2999 13.4C36.7999 14.9 35.8999 16.4 34.4999 16.9C32.9999 17.4 31.4999 16.5 30.9999 15.1C30.4999 13.6 31.3999 12.1 32.7999 11.6C34.2999 11.2 35.8999 12 36.2999 13.4Z" fill="#CE0404"/>
</g>
<defs>
<clipPath id="clip0_21_59">
<rect width="42" height="40" fill="white"/>
</clipPath>
</defs>
</svg>
