<svg width="67" height="60" viewBox="0 0 67 60" fill="none" xmlns="http://www.w3.org/2000/svg">
<g clip-path="url(#clip0_16_26)">
<path d="M12.7 38L0 60H11.1L18.3 47.6L12.7 38Z" fill="#CE0404"/>
<path d="M53.3999 38L47.8999 47.6L55.0999 60H66.1999L53.3999 38Z" fill="#CE0404"/>
<path d="M33.0998 38.6001L37.1998 42.7001L39.9998 39.9001L35.4998 32.1001C35.2998 32.2001 34.9998 32.2001 34.6998 32.2001H31.5998C31.2998 32.2001 30.9998 32.2001 30.7998 32.1001L26.2998 39.9001L29.0998 42.7001L33.0998 38.6001Z" fill="#CE0404"/>
<path d="M37.2 46.9001L33.1 42.8001L29 46.9001L24.7 42.6001L14.5 60.0001H51.5L41.5 42.6001L37.2 46.9001Z" fill="#CE0404"/>
<path d="M28.5002 21.4C28.9002 21.5 29.5002 21.5 30.1002 21.6L30.4002 28.1C30.4002 28.7 30.9002 29.1 31.4002 29.1H34.5002C35.1002 29.1 35.5002 28.7 35.5002 28.1L36.1002 17C36.1002 16.4 36.6002 16 37.1002 16H41.6002C41.8002 16 42.0002 15.9 42.1002 15.7L42.7002 14.2C42.8002 13.9 42.6002 13.5 42.2002 13.5H41.2002V7.9H49.6002L46.9002 3.9L49.8002 0H39.3002V13.6H31.6002C29.9002 13.6 28.5002 14.9 28.3002 16.6L27.9002 20.6C27.8002 21 28.1002 21.4 28.5002 21.4Z" fill="#CE0404"/>
<path d="M36.5002 9.20005C36.5002 11.1 35.0002 12.6 33.1002 12.6C31.2002 12.6 29.7002 11.1 29.7002 9.20005C29.7002 7.30005 31.2002 5.80005 33.1002 5.80005C34.9002 5.80005 36.5002 7.30005 36.5002 9.20005Z" fill="#CE0404"/>
</g>
<defs>
<clipPath id="clip0_16_26">
<rect width="67" height="60" fill="white"/>
</clipPath>
</defs>
</svg>
