<svg width="47" height="41" viewBox="0 0 47 41" fill="none" xmlns="http://www.w3.org/2000/svg">
<g clip-path="url(#clip0_21_72)">
<path d="M3.8999 13.7999H43.2999V10.7999C43.2999 8.8999 41.7999 7.2999 39.7999 7.2999H25.2999C23.3999 7.2999 21.6999 6.2999 20.6999 4.6999L19.4999 2.5999C18.8999 1.5999 17.6999 0.899902 16.4999 0.899902H6.9999C5.9999 0.999902 5.0999 1.3999 4.3999 2.0999C3.6999 2.7999 3.3999 3.6999 3.3999 4.6999L3.8999 13.7999Z" fill="#CE0404"/>
<path d="M26.8999 24.5001V22.6001C26.8999 20.7001 25.2999 19.1001 23.3999 19.1001C21.4999 19.1001 19.8999 20.7001 19.8999 22.6001V24.5001C20.8999 24.0001 22.0999 23.7001 23.3999 23.7001C24.5999 23.7001 25.7999 24.0001 26.8999 24.5001Z" fill="#CE0404"/>
<path d="M23.3999 25.5C20.0999 25.5 17.3999 28.2 17.3999 31.5C17.3999 34.8 20.0999 37.5 23.3999 37.5C26.6999 37.5 29.3999 34.8 29.3999 31.5C29.3999 28.2 26.6999 25.5 23.3999 25.5ZM24.2999 33.3C24.2999 33.8 23.8999 34.2 23.3999 34.2C22.8999 34.2 22.4999 33.8 22.4999 33.3V31.4C22.4999 30.9 22.8999 30.5 23.3999 30.5C23.8999 30.5 24.2999 30.9 24.2999 31.4V33.3Z" fill="#CE0404"/>
<path d="M46.4 16.1001C46.1 15.8001 45.8 15.6001 45.4 15.6001H1.4C1 15.6001 0.6 15.8001 0.3 16.1001C0.1 16.4001 0 16.8001 0 17.2001L2.9 38.0001C3.1 39.7001 4.6 41.0001 6.4 41.0001H40.5C42.2 41.0001 43.7 39.7001 44 38.0001L46.8 17.3001C46.8 16.8001 46.7 16.4001 46.4 16.1001ZM23.4 39.5001C19 39.5001 15.5 36.0001 15.5 31.6001C15.5 29.3001 16.4 27.2001 18 25.8001V22.6001C18 19.6001 20.4 17.2001 23.3 17.2001C26.2 17.2001 28.6 19.6001 28.6 22.6001V25.8001C30.2 27.2001 31.1 29.3001 31.1 31.6001C31.3 35.9001 27.7 39.5001 23.4 39.5001Z" fill="#CE0404"/>
</g>
<defs>
<clipPath id="clip0_21_72">
<rect width="47" height="41" fill="white"/>
</clipPath>
</defs>
</svg>
