<svg width="61" height="61" viewBox="0 0 61 61" fill="none" xmlns="http://www.w3.org/2000/svg">
<path d="M52.9001 29.6999C48.4001 21.1999 39.7001 15.8999 30.1001 15.8999C20.5001 15.8999 11.8001 21.1999 7.3001 29.6999C7.2001 29.8999 7.2001 30.0999 7.3001 30.2999C11.8001 38.7999 20.5001 44.0999 30.1001 44.0999C39.7001 44.0999 48.4001 38.7999 52.9001 30.2999C53.0001 30.0999 53.0001 29.8999 52.9001 29.6999ZM30.1001 39.0999C25.1001 39.0999 21.0001 34.9999 21.0001 29.9999C21.0001 24.9999 25.1001 20.8999 30.1001 20.8999C35.1001 20.8999 39.2001 24.9999 39.2001 29.9999C39.2001 34.9999 35.1001 39.0999 30.1001 39.0999Z" fill="#CE0404"/>
<path d="M30.8003 22.3V29.4H37.9003C37.5003 25.6 34.5003 22.6 30.8003 22.3Z" fill="#CE0404"/>
<path d="M30.8003 37.7001C34.6003 37.4001 37.6003 34.4001 37.9003 30.6001H30.8003V37.7001V37.7001Z" fill="#CE0404"/>
<path d="M29.4003 37.7001V30.6001H22.3003C22.7003 34.4001 25.7003 37.4001 29.4003 37.7001Z" fill="#CE0404"/>
<path d="M22.3999 29.2999H29.4999V22.2C25.6999 22.6 22.6999 25.5999 22.3999 29.2999Z" fill="#CE0404"/>
<path d="M59.4 0H51.2C50.8 0 50.5 0.3 50.5 0.7C50.5 1.1 50.8 1.4 51.2 1.4H58.8V9C58.8 9.4 59.1 9.7 59.5 9.7C59.9 9.7 60.2 9.4 60.2 9V0.7C60.1 0.3 59.8 0 59.4 0Z" fill="#CE0404"/>
<path d="M9 58.6999H1.4V51.0999C1.4 50.6999 1.1 50.3999 0.7 50.3999C0.3 50.3999 0 50.6999 0 51.0999V59.2999C0.1 59.6999 0.4 59.9999 0.8 59.9999H9C9.4 59.9999 9.7 59.6999 9.7 59.2999C9.7 58.9999 9.4 58.6999 9 58.6999Z" fill="#CE0404"/>
<path d="M0.800098 9.6C1.2001 9.6 1.5001 9.3 1.5001 8.9V1.3H9.1001C9.5001 1.3 9.8001 1 9.8001 0.6C9.7001 0.3 9.4001 0 9.0001 0H0.800098C0.400098 0 0.100098 0.3 0.100098 0.7V8.9C0.100098 9.3 0.400098 9.6 0.800098 9.6Z" fill="#CE0404"/>
<path d="M59.3999 50.3999C58.9999 50.3999 58.6999 50.6999 58.6999 51.0999V58.6999H51.0999C50.6999 58.6999 50.3999 58.9999 50.3999 59.3999C50.3999 59.7999 50.6999 60.0999 51.0999 60.0999H59.2999C59.6999 60.0999 59.9999 59.7999 59.9999 59.3999V51.1999C60.0999 50.6999 59.7999 50.3999 59.3999 50.3999Z" fill="#CE0404"/>
</svg>
